<svg width="42" height="42" viewBox="0 0 42 42" fill="none" xmlns="http://www.w3.org/2000/svg">
<rect width="16" height="16" fill="#011F44"/>
<rect width="16" height="16" fill="#011F44"/>
<rect width="16" height="16" fill="#011F44"/>
<rect width="16" height="16" fill="#011F44"/>
<rect width="16" height="16" fill="#011F44"/>
<rect x="26" width="16" height="16" fill="#011F44"/>
<rect x="26" width="16" height="16" fill="#011F44"/>
<rect x="26" width="16" height="16" fill="#011F44"/>
<rect x="26" width="16" height="16" fill="#011F44"/>
<rect x="26" width="16" height="16" fill="#011F44"/>
<rect x="26" y="26" width="16" height="16" fill="#011F44"/>
<rect x="26" y="26" width="16" height="16" fill="#011F44"/>
<rect x="26" y="26" width="16" height="16" fill="#011F44"/>
<rect x="26" y="26" width="16" height="16" fill="#011F44"/>
<rect x="26" y="26" width="16" height="16" fill="#011F44"/>
<rect x="1" y="26" width="16" height="16" fill="#011F44"/>
<rect x="1" y="26" width="16" height="16" fill="#011F44"/>
<rect x="1" y="26" width="16" height="16" fill="#011F44"/>
<rect x="1" y="26" width="16" height="16" fill="#011F44"/>
<rect x="1" y="26" width="16" height="16" fill="#011F44"/>
</svg>
