<svg width="44" height="41" viewBox="0 0 44 41" fill="none" xmlns="http://www.w3.org/2000/svg">
<g clip-path="url(#clip0)">
<path d="M39.8663 15.3889L37.0997 12.751V7.52375C37.0997 5.75735 35.5919 4.32028 33.7385 4.32028H28.2597L23.9765 0.235615C23.8189 0.0854525 23.6052 0.000961041 23.3824 0.000880954L20.252 0C20.2519 0 20.2518 0 20.2517 0C20.029 0 19.8153 0.0843313 19.6577 0.234414L15.368 4.32036H9.87394C8.02057 4.32036 6.51273 5.75743 6.51273 7.52383V12.7594L3.74797 15.3883C2.92994 16.1676 2.47937 17.2038 2.47937 18.3062V36.8747C2.47937 37.9859 2.94355 38.9951 3.69579 39.7376C3.71201 39.7561 3.7289 39.7743 3.74713 39.7917C3.76528 39.809 3.78427 39.825 3.8036 39.8403C4.58264 40.5574 5.64168 41 6.80776 41H18.0249C18.489 41 18.8652 40.6414 18.8652 40.1991C18.8652 39.7569 18.489 39.3983 18.0249 39.3983H6.80768C6.38358 39.3983 5.98284 39.3022 5.62706 39.1325L15.5316 29.6928L18.7562 32.7642C19.5736 33.5429 20.6601 33.9716 21.8158 33.9716H21.8171C22.9733 33.9713 24.0601 33.5418 24.8774 32.7624L28.0885 29.7001L37.9854 39.1325C37.6297 39.3022 37.2289 39.3983 36.8048 39.3983H25.5877C25.1236 39.3983 24.7474 39.7569 24.7474 40.1991C24.7474 40.6414 25.1236 41 25.5877 41H36.8049C37.9708 41 39.0299 40.5575 39.8089 39.8405C39.8283 39.8251 39.8474 39.809 39.8656 39.7917C39.8839 39.7743 39.9007 39.7561 39.917 39.7375C40.6691 38.995 41.1333 37.9859 41.1333 36.8747V18.305C41.1332 17.2037 40.6833 16.1681 39.8663 15.3889ZM37.0998 15.0167L38.6776 16.5212C38.8233 16.6601 38.9493 16.8128 39.0556 16.9755L37.0998 18.8407V15.0167ZM20.5995 1.60181L23.0338 1.60262L25.8836 4.32036H17.7454L20.5995 1.60181ZM4.93549 16.5218L6.51282 15.0219V18.8381L4.55752 16.9757C4.66382 16.8131 4.78986 16.6605 4.93549 16.5218ZM4.4387 38C4.26073 37.6609 4.15997 37.279 4.15997 36.8748V18.8615L14.3429 28.5605L4.4387 38ZM23.6887 31.6303C23.1888 32.107 22.524 32.3696 21.8167 32.3699C21.8165 32.3699 21.8162 32.3699 21.816 32.3699C21.109 32.3699 20.4443 32.1076 19.9443 31.6312L8.19342 20.4388V7.52375C8.19342 6.64055 8.94734 5.92201 9.87402 5.92201H33.7386C34.6653 5.92201 35.4192 6.64055 35.4192 7.52375V12.9804C35.4112 13.044 35.4112 13.1083 35.4192 13.1719V20.4433L23.6887 31.6303ZM39.4526 36.8748C39.4526 37.279 39.3519 37.6609 39.1739 38L29.2767 28.5672L39.4526 18.8628V36.8748Z" fill="black"/>
<path d="M21.8063 39.3982C21.5853 39.3982 21.3685 39.4839 21.2122 39.6328C21.0559 39.7818 20.966 39.9884 20.966 40.1991C20.966 40.4097 21.0559 40.6163 21.2122 40.7653C21.3685 40.915 21.5853 40.9999 21.8063 40.9999C22.0273 40.9999 22.2441 40.915 22.4004 40.7653C22.5567 40.6163 22.6466 40.4097 22.6466 40.1991C22.6466 39.9884 22.5567 39.7818 22.4004 39.6328C22.2441 39.484 22.0273 39.3982 21.8063 39.3982Z" fill="#87CAD3"/>
<path d="M21.8063 9.28076C17.4315 9.28076 13.8724 12.6728 13.8724 16.8422C13.8724 21.0687 17.4803 24.5072 21.9149 24.5072H27.0221C27.4862 24.5072 27.8624 24.1486 27.8624 23.7064C27.8624 23.2641 27.4862 22.9055 27.0221 22.9055H21.9149C18.407 22.9055 15.553 20.1855 15.553 16.8422C15.553 13.556 18.3582 10.8825 21.8063 10.8825C25.2544 10.8825 28.0596 13.556 28.0596 16.8422V18.4834C28.0596 19.1142 27.5211 19.6273 26.8593 19.6273C26.1975 19.6273 25.659 19.1142 25.659 18.4834V16.6297C25.659 14.437 23.7873 12.6531 21.4867 12.6531C19.0674 12.6531 17.0994 14.5289 17.0994 16.8346C17.0994 19.1402 19.0675 21.016 21.4867 21.016H22.8234C23.2875 21.016 23.6637 20.6574 23.6637 20.2152C23.6637 19.7729 23.2875 19.4143 22.8234 19.4143H21.4867C19.9942 19.4143 18.78 18.257 18.78 16.8345C18.78 15.4121 19.9942 14.2549 21.4867 14.2549C22.8606 14.2549 23.9784 15.3203 23.9784 16.6297V18.4834C23.9784 19.9974 25.2707 21.2291 26.8593 21.2291C28.4479 21.2291 29.7402 19.9974 29.7402 18.4834V16.8422C29.7401 12.6728 26.181 9.28076 21.8063 9.28076Z" fill="#87CAD3"/>
</g>
<defs>
<clipPath id="clip0">
<rect width="43.0188" height="41" fill="white" transform="translate(0.296875)"/>
</clipPath>
</defs>
</svg>
