<svg width="44" height="43" viewBox="0 0 44 43" fill="none" xmlns="http://www.w3.org/2000/svg">
<g clip-path="url(#clip0)">
<path d="M1.00411 21.4905H1.0292C1.41583 21.4907 1.73299 21.1845 1.74617 20.7982C2.13405 9.72271 11.4308 1.05858 22.5112 1.4462C26.7731 1.59536 30.8769 3.09719 34.2275 5.73419H30.4118C30.0159 5.73419 29.6949 6.05507 29.6949 6.45084C29.6949 6.84661 30.0159 7.16749 30.4118 7.16749H36.1475H36.1576C36.2137 7.16292 36.269 7.1519 36.3225 7.13452C36.3591 7.12924 36.3953 7.12136 36.4307 7.11088C36.4508 7.10228 36.4659 7.08436 36.4852 7.07361C36.5496 7.04217 36.6086 7.00078 36.6602 6.95106L36.6673 6.94605C36.6855 6.92114 36.7021 6.89507 36.7168 6.86793C36.7544 6.82224 36.786 6.7719 36.8107 6.71815C36.8305 6.661 36.8426 6.60152 36.8466 6.54114C36.8548 6.51158 36.8608 6.48139 36.8645 6.45084V0.717638C36.8645 0.321868 36.5435 0.000987994 36.1475 0.000987994C35.7516 0.000987994 35.4306 0.321868 35.4306 0.717638V4.86848C26.2444 -2.65474 12.6959 -1.30994 5.1694 7.87232C2.18208 11.5168 0.475528 16.0415 0.312239 20.7502C0.298975 21.1455 0.608614 21.4768 1.00411 21.4905Z" fill="black"/>
<path d="M6.80798 34.8366C6.54485 34.5398 6.09084 34.5124 5.79383 34.7754C5.49683 35.0384 5.46941 35.4922 5.73253 35.7891C6.22607 36.3427 6.74748 36.8708 7.2948 37.3714C7.59243 37.6326 8.04537 37.603 8.30661 37.3056C8.56042 37.0165 8.5407 36.5788 8.26198 36.3137C7.7524 35.8465 7.2671 35.3535 6.80798 34.8366Z" fill="#87CAD3"/>
<path d="M15.3642 40.5109C14.7088 40.2891 14.0653 40.0333 13.4363 39.7448C13.0815 39.5691 12.6513 39.7142 12.4756 40.0689C12.2998 40.4235 12.445 40.8535 12.7998 41.0292C12.812 41.0352 12.8244 41.0409 12.8369 41.0462C13.5112 41.3565 14.2015 41.6311 14.9047 41.8689C15.2798 41.9958 15.6869 41.7946 15.8138 41.4196C15.9408 41.0446 15.7395 40.6377 15.3642 40.5109Z" fill="#87CAD3"/>
<path d="M11.598 38.7816V38.7809C11.0021 38.4281 10.4245 38.0454 9.86728 37.6343C9.55638 37.3891 9.10559 37.4423 8.8603 37.7531C8.61501 38.0638 8.66824 38.5144 8.97914 38.7596C8.99079 38.7687 9.00262 38.7776 9.01481 38.786C9.61078 39.227 10.2289 39.6372 10.8667 40.0151C11.2075 40.2169 11.6474 40.1045 11.8493 39.7639C12.0513 39.4232 11.9388 38.9835 11.598 38.7816Z" fill="#87CAD3"/>
<path d="M5.50958 33.2192C5.10539 32.6575 4.73024 32.0755 4.38538 31.4756C4.1874 31.1322 3.74844 31.0143 3.40493 31.2122C3.06141 31.4101 2.94347 31.8489 3.14144 32.1922C3.51086 32.8337 3.9129 33.4559 4.34594 34.0562C4.58371 34.3727 5.03315 34.4366 5.34978 34.1989C5.65736 33.9681 5.72789 33.5358 5.50958 33.2192Z" fill="#87CAD3"/>
<path d="M3.50977 29.9217C3.50977 29.8218 3.4888 29.723 3.44838 29.6317L3.44695 29.6267C3.16634 28.9949 2.91863 28.3491 2.70489 27.6917C2.60093 27.3098 2.20687 27.0844 1.82481 27.1884C1.44276 27.2924 1.21728 27.6862 1.32133 28.0681C1.32742 28.0903 1.3345 28.1123 1.34266 28.1339C1.57146 28.8399 1.83664 29.5336 2.13705 30.2122C2.25204 30.4716 2.50925 30.6388 2.79308 30.6386C3.18902 30.6384 3.50986 30.3174 3.50977 29.9217Z" fill="#87CAD3"/>
<path d="M1.61707 26.5358C1.61716 26.5358 1.61734 26.5357 1.61743 26.5357C2.00432 26.4533 2.25132 26.0733 2.16949 25.6865C2.02664 25.0095 1.91847 24.3257 1.84543 23.6376C1.80366 23.2438 1.45038 22.9584 1.05641 23.0001C0.662435 23.0419 0.376904 23.395 0.418667 23.7888C0.497175 24.5258 0.613413 25.2582 0.767112 25.9832C0.849204 26.3705 1.22973 26.6178 1.61707 26.5358Z" fill="#87CAD3"/>
<path d="M42.1702 25.8041C42.1699 25.804 42.1697 25.804 42.1694 25.8039C41.7851 25.7088 41.3964 25.9429 41.3012 26.3271C41.135 26.9989 40.9343 27.6617 40.6996 28.3129C40.5654 28.6854 40.7586 29.096 41.1312 29.2302C41.5039 29.3644 41.9147 29.1713 42.049 28.7988C42.3005 28.1014 42.5159 27.3914 42.6942 26.6718C42.7892 26.2876 42.5546 25.8991 42.1702 25.8041Z" fill="#87CAD3"/>
<path d="M19.4065 41.4234C18.7192 41.3416 18.0368 41.2244 17.3617 41.0722C16.9754 40.985 16.5915 41.2272 16.5042 41.6133C16.4169 41.9994 16.6592 42.3832 17.0455 42.4704C17.7691 42.6334 18.5007 42.759 19.2373 42.8467C19.2658 42.8501 19.2945 42.8518 19.3233 42.8517C19.7192 42.8509 20.0395 42.5293 20.0387 42.1335C20.038 41.7711 19.7666 41.4662 19.4065 41.4234Z" fill="#87CAD3"/>
<path d="M40.8481 29.8918C40.4917 29.7198 40.0633 29.8689 39.8908 30.225C39.5894 30.848 39.2559 31.4549 38.8914 32.0431C38.6887 32.3832 38.8002 32.823 39.1404 33.0256C39.4722 33.2233 39.9012 33.1225 40.1102 32.7978C40.5004 32.1672 40.8578 31.5168 41.1807 30.8492C41.3534 30.493 41.2044 30.0644 40.8481 29.8918Z" fill="#87CAD3"/>
<path d="M38.7299 33.6189C38.42 33.3725 37.9689 33.424 37.7224 33.7338C37.7181 33.7392 37.7139 33.7447 37.7098 33.7501V33.7487C37.2868 34.2972 36.8357 34.8234 36.3583 35.3253C36.0854 35.6123 36.0967 36.0662 36.3838 36.339C36.6708 36.6119 37.125 36.6005 37.3979 36.3136C37.9084 35.7758 38.3914 35.2125 38.8448 34.6259C39.0912 34.3161 39.0398 33.8652 38.7299 33.6189Z" fill="#87CAD3"/>
<path d="M42.6117 21.5344C42.2222 21.5145 41.8902 21.8141 41.8704 22.2034C41.8701 22.2106 41.8698 22.218 41.8696 22.2252C41.8453 22.9168 41.7852 23.6067 41.6897 24.2921C41.6356 24.6836 41.909 25.0449 42.3005 25.0997C42.3338 25.1046 42.3673 25.107 42.4009 25.1069C42.7582 25.1063 43.0607 24.8429 43.11 24.4891C43.212 23.755 43.2764 23.0161 43.3028 22.2754C43.3165 21.8801 43.0073 21.5484 42.6117 21.5344Z" fill="#87CAD3"/>
<path d="M34.8563 36.7507V36.7528C34.3286 37.2031 33.7783 37.626 33.2073 38.0199C32.8808 38.2454 32.7992 38.6929 33.0248 39.0192C33.2505 39.3456 33.6982 39.4272 34.0246 39.2016C34.6352 38.7778 35.2239 38.3234 35.7884 37.84C36.0893 37.5827 36.1246 37.1303 35.8672 36.8295C35.6099 36.5287 35.1573 36.4934 34.8563 36.7507Z" fill="#87CAD3"/>
<path d="M27.6229 40.7125C26.9603 40.9121 26.2879 41.0771 25.6082 41.207C25.2193 41.2818 24.9647 41.6574 25.0395 42.0461C25.1043 42.383 25.399 42.6268 25.7423 42.6274C25.7877 42.6276 25.833 42.6235 25.8778 42.6152C26.6064 42.476 27.3272 42.2988 28.0373 42.0842C28.4133 41.9603 28.6177 41.5551 28.4938 41.1792C28.3742 40.8166 27.9912 40.6114 27.6229 40.7125Z" fill="#87CAD3"/>
<path d="M23.5892 41.489C23.576 41.4897 23.5629 41.4909 23.5499 41.4923L23.5534 41.4952C22.9799 41.5439 22.3927 41.5669 21.8076 41.5669H21.48C21.089 41.5724 20.7694 41.8802 20.7494 42.2706C20.7422 42.6664 21.0573 42.993 21.4532 43.0002C21.4533 43.0002 21.4534 43.0002 21.4534 43.0002H21.8076C22.4343 43.0002 23.0623 42.9722 23.6717 42.9199C24.0671 42.8971 24.3691 42.5583 24.3462 42.1632C24.3234 41.7681 23.9844 41.4662 23.5892 41.489Z" fill="#87CAD3"/>
<path d="M31.4429 39.1078H31.4436C30.8366 39.4401 30.213 39.741 29.5752 40.0094C29.2083 40.1582 29.0315 40.5761 29.1802 40.9428C29.329 41.3096 29.7472 41.4863 30.1141 41.3376C30.1195 41.3354 30.1247 41.3332 30.13 41.3309C30.8135 41.0434 31.4816 40.721 32.1318 40.3648C32.4791 40.1746 32.6063 39.7391 32.4161 39.392C32.226 39.0448 31.7902 38.9176 31.4429 39.1078Z" fill="#87CAD3"/>
<path d="M21.8076 6.45068C13.4922 6.45068 6.75134 13.1886 6.75134 21.5003C6.75134 29.812 13.4922 36.55 21.8076 36.55C30.1229 36.55 36.8638 29.812 36.8638 21.5003C36.8544 13.1926 30.119 6.46018 21.8076 6.45068ZM33.279 22.217H35.3933C35.0209 29.1611 29.4717 34.7078 22.5246 35.0801V32.9667C22.5246 32.571 22.2035 32.2501 21.8076 32.2501C21.4116 32.2501 21.0906 32.571 21.0906 32.9667V35.0801C14.1435 34.7078 8.5943 29.1611 8.22184 22.217H10.3362C10.7321 22.217 11.0531 21.8961 11.0531 21.5003C11.0531 21.1046 10.7321 20.7837 10.3362 20.7837H8.22184C8.5943 13.8396 14.1435 8.29283 21.0906 7.92053V10.0339C21.0906 10.4297 21.4116 10.7506 21.8076 10.7506C22.2035 10.7506 22.5246 10.4297 22.5246 10.0339V7.92053C29.4717 8.29283 35.0209 13.8396 35.3933 20.7837H33.279C32.8831 20.7837 32.5621 21.1046 32.5621 21.5003C32.5621 21.8961 32.8831 22.217 33.279 22.217Z" fill="black"/>
<path d="M22.5245 19.4822V12.9005C22.5245 12.5047 22.2035 12.1838 21.8075 12.1838C21.4116 12.1838 21.0906 12.5047 21.0906 12.9005V19.4822C20.4834 19.699 20.0054 20.1767 19.7886 20.7837H16.0718C15.6759 20.7837 15.3549 21.1045 15.3549 21.5003C15.3549 21.8961 15.6759 22.217 16.0718 22.217H19.7886C20.1815 23.3346 21.4064 23.9222 22.5245 23.5295C23.6426 23.1368 24.2305 21.9124 23.8376 20.7948C23.6218 20.1808 23.1388 19.698 22.5245 19.4822ZM21.8075 22.217C21.4116 22.217 21.0906 21.8961 21.0906 21.5003C21.0906 21.1045 21.4116 20.7837 21.8075 20.7837C22.2035 20.7837 22.5245 21.1045 22.5245 21.5003C22.5245 21.8961 22.2036 22.217 21.8075 22.217Z" fill="black"/>
</g>
<defs>
<clipPath id="clip0">
<rect width="43.0188" height="43" fill="white" transform="translate(0.297852)"/>
</clipPath>
</defs>
</svg>
