<svg width="44" height="43" viewBox="0 0 44 43" fill="none" xmlns="http://www.w3.org/2000/svg">
<g clip-path="url(#clip0)">
<path d="M8.25737 24.8748C7.51656 25.3141 7.01857 26.1213 7.01857 27.043C7.01857 28.4322 8.14932 29.5625 9.5392 29.5625C10.6345 29.5625 11.5685 28.8603 11.9153 27.8828H18.4454C19.8353 27.8828 20.9661 29.0131 20.9661 30.4023C20.9661 31.7916 19.8353 32.9219 18.4454 32.9219H8.3629C6.04644 32.9219 4.16185 34.8056 4.16185 37.1211C4.16185 39.4365 6.04644 41.3203 8.3629 41.3203H16.765C17.2291 41.3203 17.6052 40.9443 17.6052 40.4805C17.6052 40.0166 17.2291 39.6406 16.765 39.6406H8.3629C6.97303 39.6406 5.84227 38.5104 5.84227 37.1211C5.84227 35.7318 6.97303 34.6016 8.3629 34.6016H18.4454C20.7619 34.6016 22.6465 32.7178 22.6465 30.4023C22.6465 28.0869 20.7619 26.2031 18.4454 26.2031H11.9153C11.7166 25.6431 11.3252 25.1737 10.821 24.8748L17.2384 14.3502C18.2479 12.8335 18.7815 11.0661 18.7815 9.23828C18.7815 4.14429 14.6354 0 9.5392 0C4.44298 0 0.296875 4.14429 0.296875 9.23828C0.296875 11.0661 0.830493 12.8335 1.84001 14.3502L8.25737 24.8748ZM9.5392 27.8828C9.07591 27.8828 8.69899 27.5061 8.69899 27.043C8.69899 26.5799 9.07591 26.2031 9.5392 26.2031C10.0025 26.2031 10.3794 26.5799 10.3794 27.043C10.3794 27.5061 10.0025 27.8828 9.5392 27.8828ZM9.5392 1.67969C13.7088 1.67969 17.1011 5.07047 17.1011 9.23828C17.1011 10.7389 16.6619 12.1891 15.8311 13.432C15.8247 13.4417 15.8184 13.4515 15.8123 13.4615L9.5392 23.7495C9.5392 23.7495 3.25375 13.4417 3.24728 13.432C2.41648 12.1891 1.9773 10.7389 1.9773 9.23828C1.9773 5.07047 5.36957 1.67969 9.5392 1.67969Z" fill="black"/>
<path d="M9.53919 13.4375C11.8557 13.4375 13.7402 11.5537 13.7402 9.23828C13.7402 6.92283 11.8557 5.03906 9.53919 5.03906C7.22273 5.03906 5.33813 6.92283 5.33813 9.23828C5.33813 11.5537 7.22273 13.4375 9.53919 13.4375ZM9.53919 6.71875C10.9291 6.71875 12.0598 7.84901 12.0598 9.23828C12.0598 10.6276 10.9291 11.7578 9.53919 11.7578C8.14931 11.7578 7.01856 10.6276 7.01856 9.23828C7.01856 7.84901 8.14931 6.71875 9.53919 6.71875Z" fill="#87CAD3"/>
<path d="M34.0734 13.9414C28.9771 13.9414 24.831 18.0857 24.831 23.1797C24.831 25.0105 25.3663 26.7805 26.379 28.2989L32.7725 38.3232C32.2774 38.6227 31.8935 39.0876 31.6973 39.6406H24.3269C23.8629 39.6406 23.4867 40.0166 23.4867 40.4805C23.4867 40.9443 23.8629 41.3203 24.3269 41.3203H31.6972C32.0441 42.2978 32.978 43 34.0734 43C35.4632 43 36.594 41.8697 36.594 40.4805C36.594 39.5666 36.1047 38.765 35.3743 38.3232L41.7678 28.2989C42.7804 26.7805 43.3157 25.0105 43.3157 23.1797C43.3157 18.0857 39.1696 13.9414 34.0734 13.9414ZM34.0734 41.3203C33.6101 41.3203 33.2331 40.9436 33.2331 40.4805C33.2331 40.0174 33.6101 39.6406 34.0734 39.6406C34.5367 39.6406 34.9136 40.0174 34.9136 40.4805C34.9136 40.9436 34.5367 41.3203 34.0734 41.3203ZM40.3653 27.3734C40.362 27.3785 34.0734 37.2384 34.0734 37.2384C34.0734 37.2384 27.7847 27.3784 27.7814 27.3734C26.9506 26.1305 26.5115 24.6803 26.5115 23.1797C26.5115 19.0119 29.9037 15.6211 34.0734 15.6211C38.243 15.6211 41.6353 19.0119 41.6353 23.1797C41.6353 24.6803 41.1961 26.1305 40.3653 27.3734Z" fill="black"/>
<path d="M34.0734 18.9805C31.7569 18.9805 29.8723 20.8642 29.8723 23.1797C29.8723 25.4951 31.7569 27.3789 34.0734 27.3789C36.3898 27.3789 38.2744 25.4951 38.2744 23.1797C38.2744 20.8642 36.3898 18.9805 34.0734 18.9805ZM34.0734 25.6992C32.6835 25.6992 31.5527 24.569 31.5527 23.1797C31.5527 21.7904 32.6835 20.6602 34.0734 20.6602C35.4632 20.6602 36.594 21.7904 36.594 23.1797C36.594 24.569 35.4632 25.6992 34.0734 25.6992Z" fill="#87CAD3"/>
<path d="M20.546 41.3203C21.01 41.3203 21.3862 40.9443 21.3862 40.4805C21.3862 40.0166 21.01 39.6406 20.546 39.6406C20.0819 39.6406 19.7057 40.0166 19.7057 40.4805C19.7057 40.9443 20.0819 41.3203 20.546 41.3203Z" fill="#87CAD3"/>
</g>
<defs>
<clipPath id="clip0">
<rect width="43.0188" height="43" fill="white" transform="translate(0.296875)"/>
</clipPath>
</defs>
</svg>
